<svg width="128" height="128" viewBox="0 0 128 128" fill="none" xmlns="http://www.w3.org/2000/svg">
  <!-- Black background -->
  <rect width="128" height="128" fill="#000000" rx="16"/>
  
  <!-- Gradients -->
  <defs>
    <linearGradient id="speedGradient" x1="0%" y1="0%" x2="100%" y2="100%">
      <stop offset="0%" style="stop-color:#00D4FF;stop-opacity:1" />
      <stop offset="50%" style="stop-color:#8B5CF6;stop-opacity:1" />
      <stop offset="100%" style="stop-color:#FF6B9D;stop-opacity:1" />
    </linearGradient>
    <linearGradient id="playGradient" x1="0%" y1="0%" x2="100%" y2="100%">
      <stop offset="0%" style="stop-color:#FF6B9D;stop-opacity:1" />
      <stop offset="100%" style="stop-color:#FF8A65;stop-opacity:1" />
    </linearGradient>
  </defs>
  
  <!-- Speed lines/motion effect -->
  <g opacity="0.8">
    <!-- Top speed lines -->
    <rect x="20" y="25" width="30" height="4" rx="2" fill="url(#speedGradient)" opacity="0.6"/>
    <rect x="25" y="32" width="40" height="5" rx="2.5" fill="url(#speedGradient)" opacity="0.7"/>
    <rect x="30" y="39" width="45" height="6" rx="3" fill="url(#speedGradient)" opacity="0.8"/>
    
    <!-- Bottom speed lines -->
    <rect x="18" y="83" width="35" height="5" rx="2.5" fill="url(#speedGradient)" opacity="0.6"/>
    <rect x="23" y="90" width="45" height="6" rx="3" fill="url(#speedGradient)" opacity="0.7"/>
    <rect x="28" y="97" width="50" height="7" rx="3.5" fill="url(#speedGradient)" opacity="0.8"/>
  </g>
  
  <!-- Decorative dots -->
  <circle cx="25" cy="20" r="2.5" fill="#00D4FF" opacity="0.8"/>
  <circle cx="32" cy="15" r="3" fill="#00D4FF" opacity="0.9"/>
  <circle cx="95" cy="25" r="2" fill="#8B5CF6" opacity="0.7"/>
  <circle cx="100" cy="32" r="3" fill="#8B5CF6" opacity="0.8"/>
  
  <circle cx="20" cy="108" r="2" fill="#FF6B9D" opacity="0.7"/>
  <circle cx="25" cy="113" r="3" fill="#FF6B9D" opacity="0.8"/>
  <circle cx="95" cy="103" r="2.5" fill="#FF8A65" opacity="0.8"/>
  <circle cx="100" cy="108" r="3" fill="#FF8A65" opacity="0.9"/>
  
  <!-- Main play button -->
  <path d="M45 50 L45 78 L70 64 Z" fill="url(#playGradient)" stroke="none"/>
  
  <!-- Forward/skip arrows -->
  <path d="M75 50 L75 78 L95 64 Z" fill="url(#speedGradient)" stroke="none" opacity="0.9"/>
  <path d="M85 50 L85 78 L105 64 Z" fill="url(#speedGradient)" stroke="none" opacity="0.7"/>
</svg>